<mxfile host="app.diagrams.net" agent="Mozilla/5.0 (Macintosh; Intel Mac OS X 10.15; rv:142.0) Gecko/20100101 Firefox/142.0" version="28.2.0">
  <diagram id="SS_Wd6hS6tJQLoFRPaFr" name="Page-2">
    <mxGraphModel dx="2168" dy="1645" grid="0" gridSize="10" guides="1" tooltips="1" connect="1" arrows="1" fold="1" page="0" pageScale="1" pageWidth="850" pageHeight="1100" math="0" shadow="0">
      <root>
        <mxCell id="0" />
        <mxCell id="1" parent="0" />
        <mxCell id="SiSDeAiF9ZgPKwELXqy6-1" value="&lt;font style=&quot;font-size: 17px;&quot;&gt;This will be a description of how our web game &quot;Triple Adventure&quot; will work.&lt;/font&gt;" style="text;html=1;align=center;verticalAlign=middle;whiteSpace=wrap;rounded=0;" vertex="1" parent="1">
          <mxGeometry x="777.6499938964844" y="123.85000610351562" width="610" height="60" as="geometry" />
        </mxCell>
        <mxCell id="SiSDeAiF9ZgPKwELXqy6-2" value="index.html" style="rounded=0;whiteSpace=wrap;html=1;" vertex="1" parent="1">
          <mxGeometry x="1020.1499938964844" y="1203.8500061035156" width="120" height="60" as="geometry" />
        </mxCell>
        <mxCell id="SiSDeAiF9ZgPKwELXqy6-3" value="git repository (code)" style="rounded=0;whiteSpace=wrap;html=1;" vertex="1" parent="1">
          <mxGeometry x="1221.1499938964844" y="1280.0000061035157" width="120" height="60" as="geometry" />
        </mxCell>
        <mxCell id="SiSDeAiF9ZgPKwELXqy6-4" value="" style="endArrow=classic;startArrow=classic;html=1;rounded=0;exitX=1;exitY=0.5;exitDx=0;exitDy=0;entryX=0;entryY=0.5;entryDx=0;entryDy=0;" edge="1" parent="1" source="SiSDeAiF9ZgPKwELXqy6-2" target="SiSDeAiF9ZgPKwELXqy6-3">
          <mxGeometry width="50" height="50" relative="1" as="geometry">
            <mxPoint x="1065.1499938964844" y="1043.8500061035156" as="sourcePoint" />
            <mxPoint x="1115.1499938964844" y="993.8500061035156" as="targetPoint" />
          </mxGeometry>
        </mxCell>
        <mxCell id="SiSDeAiF9ZgPKwELXqy6-5" value="See code" style="edgeLabel;html=1;align=center;verticalAlign=middle;resizable=0;points=[];" vertex="1" connectable="0" parent="SiSDeAiF9ZgPKwELXqy6-4">
          <mxGeometry x="-0.1656" y="-3" relative="1" as="geometry">
            <mxPoint x="10" y="-13" as="offset" />
          </mxGeometry>
        </mxCell>
        <mxCell id="SiSDeAiF9ZgPKwELXqy6-6" value="menu.html" style="rounded=0;whiteSpace=wrap;html=1;" vertex="1" parent="1">
          <mxGeometry x="1020.1499938964844" y="1083.8500061035156" width="120" height="60" as="geometry" />
        </mxCell>
        <mxCell id="SiSDeAiF9ZgPKwELXqy6-7" value="" style="endArrow=classic;startArrow=classic;html=1;rounded=0;entryX=0.5;entryY=1;entryDx=0;entryDy=0;exitX=0.5;exitY=0;exitDx=0;exitDy=0;" edge="1" parent="1" source="SiSDeAiF9ZgPKwELXqy6-2" target="SiSDeAiF9ZgPKwELXqy6-6">
          <mxGeometry width="50" height="50" relative="1" as="geometry">
            <mxPoint x="1055.1499938964844" y="1193.8500061035156" as="sourcePoint" />
            <mxPoint x="1095.1499938964844" y="1153.8500061035156" as="targetPoint" />
          </mxGeometry>
        </mxCell>
        <mxCell id="SiSDeAiF9ZgPKwELXqy6-8" value="Play Game" style="edgeLabel;html=1;align=center;verticalAlign=middle;resizable=0;points=[];" vertex="1" connectable="0" parent="1">
          <mxGeometry x="1037.6499938964844" y="1193.8500061035156" as="geometry">
            <mxPoint x="4" y="-2" as="offset" />
          </mxGeometry>
        </mxCell>
        <mxCell id="SiSDeAiF9ZgPKwELXqy6-9" value="enter.html" style="rounded=0;whiteSpace=wrap;html=1;" vertex="1" parent="1">
          <mxGeometry x="442.6499938964844" y="823.8500061035156" width="120" height="60" as="geometry" />
        </mxCell>
        <mxCell id="SiSDeAiF9ZgPKwELXqy6-10" value="archer.html" style="rounded=0;whiteSpace=wrap;html=1;" vertex="1" parent="1">
          <mxGeometry x="1020.1499938964844" y="953.8500061035156" width="120" height="60" as="geometry" />
        </mxCell>
        <mxCell id="SiSDeAiF9ZgPKwELXqy6-82" value="" style="edgeStyle=none;curved=1;rounded=0;orthogonalLoop=1;jettySize=auto;html=1;fontSize=12;startSize=8;endSize=8;" edge="1" parent="1" source="SiSDeAiF9ZgPKwELXqy6-11" target="SiSDeAiF9ZgPKwELXqy6-81">
          <mxGeometry relative="1" as="geometry" />
        </mxCell>
        <mxCell id="SiSDeAiF9ZgPKwELXqy6-11" value="wizard.html" style="rounded=0;whiteSpace=wrap;html=1;" vertex="1" parent="1">
          <mxGeometry x="1597.6499938964844" y="953.8500061035156" width="120" height="60" as="geometry" />
        </mxCell>
        <mxCell id="SiSDeAiF9ZgPKwELXqy6-12" value="" style="endArrow=classic;startArrow=none;html=1;rounded=0;entryX=0.5;entryY=1;entryDx=0;entryDy=0;exitX=1;exitY=0.5;exitDx=0;exitDy=0;edgeStyle=orthogonalEdgeStyle;startFill=0;" edge="1" parent="1" source="SiSDeAiF9ZgPKwELXqy6-6" target="SiSDeAiF9ZgPKwELXqy6-11">
          <mxGeometry width="50" height="50" relative="1" as="geometry">
            <mxPoint x="1170.1499938964844" y="1213.8500061035156" as="sourcePoint" />
            <mxPoint x="980.1499938964844" y="1113.8500061035156" as="targetPoint" />
          </mxGeometry>
        </mxCell>
        <mxCell id="SiSDeAiF9ZgPKwELXqy6-13" value="" style="endArrow=classic;startArrow=none;html=1;rounded=0;entryX=0.5;entryY=1;entryDx=0;entryDy=0;exitX=0.5;exitY=0;exitDx=0;exitDy=0;startFill=0;" edge="1" parent="1" source="SiSDeAiF9ZgPKwELXqy6-6" target="SiSDeAiF9ZgPKwELXqy6-10">
          <mxGeometry width="50" height="50" relative="1" as="geometry">
            <mxPoint x="1090.1499938964844" y="1093.8500061035156" as="sourcePoint" />
            <mxPoint x="1140.1499938964844" y="1043.8500061035156" as="targetPoint" />
          </mxGeometry>
        </mxCell>
        <mxCell id="SiSDeAiF9ZgPKwELXqy6-14" value="choose glory&#39;s path and become a knight" style="text;html=1;align=center;verticalAlign=middle;whiteSpace=wrap;rounded=0;" vertex="1" parent="1">
          <mxGeometry x="502.6499938964844" y="1080.8500061035156" width="140" height="30" as="geometry" />
        </mxCell>
        <mxCell id="SiSDeAiF9ZgPKwELXqy6-15" value="choose enchatment&#39;s path and become a wizard" style="text;html=1;align=center;verticalAlign=middle;whiteSpace=wrap;rounded=0;" vertex="1" parent="1">
          <mxGeometry x="1501.6499938964844" y="1083.8500061035156" width="160" height="30" as="geometry" />
        </mxCell>
        <mxCell id="SiSDeAiF9ZgPKwELXqy6-16" value="choose hunter&#39;s path and become an archer" style="text;html=1;align=center;verticalAlign=middle;whiteSpace=wrap;rounded=0;" vertex="1" parent="1">
          <mxGeometry x="1081.1499938964844" y="1035.8500061035156" width="140" height="30" as="geometry" />
        </mxCell>
        <mxCell id="SiSDeAiF9ZgPKwELXqy6-17" style="edgeStyle=orthogonalEdgeStyle;rounded=0;orthogonalLoop=1;jettySize=auto;html=1;exitX=0;exitY=0.5;exitDx=0;exitDy=0;entryX=0;entryY=1;entryDx=0;entryDy=0;strokeColor=#000000;" edge="1" parent="1" source="SiSDeAiF9ZgPKwELXqy6-18" target="SiSDeAiF9ZgPKwELXqy6-6">
          <mxGeometry relative="1" as="geometry">
            <Array as="points">
              <mxPoint x="187.64999389648438" y="293.8500061035156" />
              <mxPoint x="187.64999389648438" y="1173.8500061035156" />
              <mxPoint x="1020.6499938964844" y="1173.8500061035156" />
            </Array>
          </mxGeometry>
        </mxCell>
        <mxCell id="SiSDeAiF9ZgPKwELXqy6-18" value="darklord.html" style="rounded=0;whiteSpace=wrap;html=1;strokeColor=#FF0000;" vertex="1" parent="1">
          <mxGeometry x="442.6499938964844" y="263.8500061035156" width="120" height="60" as="geometry" />
        </mxCell>
        <mxCell id="SiSDeAiF9ZgPKwELXqy6-19" value="beast.html" style="rounded=0;whiteSpace=wrap;html=1;strokeColor=#FF0000;" vertex="1" parent="1">
          <mxGeometry x="927.6499938964844" y="253.85000610351562" width="120" height="60" as="geometry" />
        </mxCell>
        <mxCell id="SiSDeAiF9ZgPKwELXqy6-23" value="academy.html" style="rounded=0;whiteSpace=wrap;html=1;" vertex="1" parent="1">
          <mxGeometry x="232.64999389648438" y="753.8500061035156" width="120" height="60" as="geometry" />
        </mxCell>
        <mxCell id="SiSDeAiF9ZgPKwELXqy6-24" value="garden.html" style="rounded=0;whiteSpace=wrap;html=1;" vertex="1" parent="1">
          <mxGeometry x="442.6499938964844" y="643.8500061035156" width="120" height="60" as="geometry" />
        </mxCell>
        <mxCell id="SiSDeAiF9ZgPKwELXqy6-25" value="king.html" style="rounded=0;whiteSpace=wrap;html=1;strokeColor=#FF0000;" vertex="1" parent="1">
          <mxGeometry x="642.6499938964844" y="753.8500061035156" width="120" height="60" as="geometry" />
        </mxCell>
        <mxCell id="SiSDeAiF9ZgPKwELXqy6-26" value="main.html" style="rounded=0;whiteSpace=wrap;html=1;strokeColor=#FF0000;" vertex="1" parent="1">
          <mxGeometry x="322.6499938964844" y="413.8500061035156" width="120" height="60" as="geometry" />
        </mxCell>
        <mxCell id="SiSDeAiF9ZgPKwELXqy6-27" value="" style="endArrow=classic;startArrow=classic;html=1;rounded=0;entryX=0.5;entryY=1;entryDx=0;entryDy=0;exitX=0.5;exitY=0;exitDx=0;exitDy=0;" edge="1" parent="1" source="SiSDeAiF9ZgPKwELXqy6-9" target="SiSDeAiF9ZgPKwELXqy6-24">
          <mxGeometry width="50" height="50" relative="1" as="geometry">
            <mxPoint x="717.6499938964844" y="773.8500061035156" as="sourcePoint" />
            <mxPoint x="767.6499938964844" y="723.8500061035156" as="targetPoint" />
          </mxGeometry>
        </mxCell>
        <mxCell id="SiSDeAiF9ZgPKwELXqy6-28" value="" style="endArrow=classic;startArrow=classic;html=1;rounded=0;entryX=0.5;entryY=1;entryDx=0;entryDy=0;exitX=1;exitY=0.5;exitDx=0;exitDy=0;edgeStyle=orthogonalEdgeStyle;" edge="1" parent="1" source="SiSDeAiF9ZgPKwELXqy6-9" target="SiSDeAiF9ZgPKwELXqy6-25">
          <mxGeometry width="50" height="50" relative="1" as="geometry">
            <mxPoint x="547.6499938964844" y="863.8500061035156" as="sourcePoint" />
            <mxPoint x="547.6499938964844" y="793.8500061035156" as="targetPoint" />
          </mxGeometry>
        </mxCell>
        <mxCell id="SiSDeAiF9ZgPKwELXqy6-29" value="" style="endArrow=classic;startArrow=classic;html=1;rounded=0;entryX=0.5;entryY=1;entryDx=0;entryDy=0;exitX=0;exitY=0.5;exitDx=0;exitDy=0;edgeStyle=orthogonalEdgeStyle;" edge="1" parent="1" source="SiSDeAiF9ZgPKwELXqy6-9" target="SiSDeAiF9ZgPKwELXqy6-23">
          <mxGeometry width="50" height="50" relative="1" as="geometry">
            <mxPoint x="257.6499938964844" y="903.8500061035156" as="sourcePoint" />
            <mxPoint x="257.6499938964844" y="833.8500061035156" as="targetPoint" />
          </mxGeometry>
        </mxCell>
        <mxCell id="SiSDeAiF9ZgPKwELXqy6-30" value="" style="endArrow=classic;startArrow=classic;html=1;rounded=0;entryX=0.5;entryY=1;entryDx=0;entryDy=0;exitX=0.5;exitY=0;exitDx=0;exitDy=0;edgeStyle=orthogonalEdgeStyle;" edge="1" parent="1" source="SiSDeAiF9ZgPKwELXqy6-26" target="SiSDeAiF9ZgPKwELXqy6-18">
          <mxGeometry width="50" height="50" relative="1" as="geometry">
            <mxPoint x="517.6499938964844" y="553.8500061035156" as="sourcePoint" />
            <mxPoint x="517.6499938964844" y="483.8500061035156" as="targetPoint" />
          </mxGeometry>
        </mxCell>
        <mxCell id="SiSDeAiF9ZgPKwELXqy6-31" value="sneak.html" style="rounded=0;whiteSpace=wrap;html=1;strokeColor=#FF0000;" vertex="1" parent="1">
          <mxGeometry x="562.6499938964844" y="413.8500061035156" width="120" height="60" as="geometry" />
        </mxCell>
        <mxCell id="SiSDeAiF9ZgPKwELXqy6-32" value="" style="endArrow=classic;startArrow=classic;html=1;rounded=0;entryX=0.5;entryY=1;entryDx=0;entryDy=0;exitX=0.5;exitY=0;exitDx=0;exitDy=0;edgeStyle=orthogonalEdgeStyle;" edge="1" parent="1" source="SiSDeAiF9ZgPKwELXqy6-31" target="SiSDeAiF9ZgPKwELXqy6-18">
          <mxGeometry width="50" height="50" relative="1" as="geometry">
            <mxPoint x="717.6499938964844" y="643.8500061035156" as="sourcePoint" />
            <mxPoint x="767.6499938964844" y="593.8500061035156" as="targetPoint" />
          </mxGeometry>
        </mxCell>
        <mxCell id="SiSDeAiF9ZgPKwELXqy6-33" value="&lt;div style=&quot;text-align: justify;&quot;&gt;&lt;span style=&quot;font-size: 16px; background-color: transparent; color: light-dark(rgb(0, 0, 0), rgb(255, 255, 255));&quot;&gt;GENERAL CLARIFICATIONS&lt;/span&gt;&lt;/div&gt;&lt;div style=&quot;text-align: justify;&quot;&gt;&lt;font style=&quot;font-size: 16px;&quot;&gt;1. Every rectangle represents a different scenario (html page).&lt;/font&gt;&lt;/div&gt;&lt;div style=&quot;text-align: justify;&quot;&gt;&lt;font style=&quot;font-size: 16px;&quot;&gt;2. Arrows connecting scenarios represent which of them are connected (you can travel between them). The arrow&#39;s head indicate the direction in which you can travel through scenarios.&lt;/font&gt;&lt;/div&gt;&lt;div style=&quot;text-align: justify;&quot;&gt;&lt;font style=&quot;font-size: 16px;&quot;&gt;Purple arrows indicates that the given connection can only happen if there are determinated circumstances.&lt;/font&gt;&lt;/div&gt;&lt;div style=&quot;text-align: justify;&quot;&gt;&lt;font style=&quot;font-size: 16px;&quot;&gt;3. Rectangles outlining:&lt;/font&gt;&lt;/div&gt;&lt;div style=&quot;text-align: justify;&quot;&gt;&lt;span style=&quot;font-size: 16px;&quot;&gt;&amp;nbsp; &amp;nbsp; - Black -&amp;gt; Normal Rectangle.&lt;/span&gt;&lt;/div&gt;&lt;div style=&quot;text-align: justify;&quot;&gt;&lt;span style=&quot;font-size: 16px;&quot;&gt;&amp;nbsp; &amp;nbsp; - Red -&amp;gt; You can die in this rectangle, thus bringing you to the initial (index.html) scenario.&lt;/span&gt;&lt;/div&gt;&lt;div style=&quot;text-align: justify;&quot;&gt;&lt;span style=&quot;font-size: 16px;&quot;&gt;&lt;br&gt;&lt;/span&gt;&lt;/div&gt;" style="text;html=1;align=left;verticalAlign=middle;whiteSpace=wrap;rounded=0;" vertex="1" parent="1">
          <mxGeometry x="536.1499938964844" y="1283.8500061035156" width="731.5" height="240" as="geometry" />
        </mxCell>
        <mxCell id="SiSDeAiF9ZgPKwELXqy6-34" value="entrance.html" style="rounded=0;whiteSpace=wrap;html=1;" vertex="1" parent="1">
          <mxGeometry x="442.6499938964844" y="983.8500061035156" width="120" height="60" as="geometry" />
        </mxCell>
        <mxCell id="SiSDeAiF9ZgPKwELXqy6-35" value="pass&lt;span style=&quot;background-color: transparent; color: light-dark(rgb(0, 0, 0), rgb(255, 255, 255));&quot;&gt;.html&lt;/span&gt;" style="rounded=0;whiteSpace=wrap;html=1;strokeColor=#FF0000;" vertex="1" parent="1">
          <mxGeometry x="232.64999389648438" y="913.8500061035156" width="120" height="60" as="geometry" />
        </mxCell>
        <mxCell id="SiSDeAiF9ZgPKwELXqy6-36" value="" style="endArrow=classic;startArrow=classic;html=1;rounded=0;entryX=0.5;entryY=1;entryDx=0;entryDy=0;exitX=0;exitY=0.5;exitDx=0;exitDy=0;edgeStyle=orthogonalEdgeStyle;startFill=1;" edge="1" parent="1" source="SiSDeAiF9ZgPKwELXqy6-34" target="SiSDeAiF9ZgPKwELXqy6-35">
          <mxGeometry width="50" height="50" relative="1" as="geometry">
            <mxPoint x="707.6499938964844" y="813.8500061035156" as="sourcePoint" />
            <mxPoint x="757.6499938964844" y="763.8500061035156" as="targetPoint" />
          </mxGeometry>
        </mxCell>
        <mxCell id="SiSDeAiF9ZgPKwELXqy6-37" value="" style="endArrow=classic;startArrow=classic;html=1;rounded=0;entryX=0.5;entryY=1;entryDx=0;entryDy=0;exitX=0.5;exitY=0;exitDx=0;exitDy=0;edgeStyle=orthogonalEdgeStyle;" edge="1" parent="1" source="SiSDeAiF9ZgPKwELXqy6-34" target="SiSDeAiF9ZgPKwELXqy6-9">
          <mxGeometry width="50" height="50" relative="1" as="geometry">
            <mxPoint x="607.6499938964844" y="1070.8500061035156" as="sourcePoint" />
            <mxPoint x="702.6499938964844" y="993.8500061035156" as="targetPoint" />
          </mxGeometry>
        </mxCell>
        <mxCell id="SiSDeAiF9ZgPKwELXqy6-38" value="knight.html" style="rounded=0;whiteSpace=wrap;html=1;" vertex="1" parent="1">
          <mxGeometry x="707.6499938964844" y="1083.8500061035156" width="120" height="60" as="geometry" />
        </mxCell>
        <mxCell id="SiSDeAiF9ZgPKwELXqy6-39" value="" style="endArrow=none;startArrow=classic;html=1;rounded=0;entryX=0;entryY=0.5;entryDx=0;entryDy=0;exitX=1;exitY=0.5;exitDx=0;exitDy=0;startFill=1;endFill=0;" edge="1" parent="1" source="SiSDeAiF9ZgPKwELXqy6-38" target="SiSDeAiF9ZgPKwELXqy6-6">
          <mxGeometry width="50" height="50" relative="1" as="geometry">
            <mxPoint x="687.6499938964844" y="843.8500061035156" as="sourcePoint" />
            <mxPoint x="737.6499938964844" y="793.8500061035156" as="targetPoint" />
          </mxGeometry>
        </mxCell>
        <mxCell id="SiSDeAiF9ZgPKwELXqy6-40" value="" style="endArrow=none;startArrow=classic;html=1;rounded=0;entryX=0;entryY=0.5;entryDx=0;entryDy=0;exitX=0.5;exitY=1;exitDx=0;exitDy=0;edgeStyle=orthogonalEdgeStyle;endFill=0;" edge="1" parent="1" source="SiSDeAiF9ZgPKwELXqy6-34" target="SiSDeAiF9ZgPKwELXqy6-38">
          <mxGeometry width="50" height="50" relative="1" as="geometry">
            <mxPoint x="887.6499938964844" y="1123.8500061035156" as="sourcePoint" />
            <mxPoint x="1070.6499938964844" y="1123.8500061035156" as="targetPoint" />
          </mxGeometry>
        </mxCell>
        <mxCell id="SiSDeAiF9ZgPKwELXqy6-41" value="training.html" style="rounded=0;whiteSpace=wrap;html=1;" vertex="1" parent="1">
          <mxGeometry x="232.64999389648438" y="643.8500061035156" width="120" height="60" as="geometry" />
        </mxCell>
        <mxCell id="SiSDeAiF9ZgPKwELXqy6-42" value="" style="endArrow=classic;startArrow=classic;html=1;rounded=0;entryX=0.5;entryY=1;entryDx=0;entryDy=0;exitX=0.5;exitY=0;exitDx=0;exitDy=0;" edge="1" parent="1" source="SiSDeAiF9ZgPKwELXqy6-23" target="SiSDeAiF9ZgPKwELXqy6-41">
          <mxGeometry width="50" height="50" relative="1" as="geometry">
            <mxPoint x="657.6499938964844" y="713.8500061035156" as="sourcePoint" />
            <mxPoint x="707.6499938964844" y="663.8500061035156" as="targetPoint" />
          </mxGeometry>
        </mxCell>
        <mxCell id="SiSDeAiF9ZgPKwELXqy6-43" style="edgeStyle=orthogonalEdgeStyle;rounded=0;orthogonalLoop=1;jettySize=auto;html=1;exitX=0.75;exitY=0;exitDx=0;exitDy=0;entryX=0.5;entryY=1;entryDx=0;entryDy=0;" edge="1" parent="1" source="SiSDeAiF9ZgPKwELXqy6-46" target="SiSDeAiF9ZgPKwELXqy6-31">
          <mxGeometry relative="1" as="geometry" />
        </mxCell>
        <mxCell id="SiSDeAiF9ZgPKwELXqy6-44" style="edgeStyle=orthogonalEdgeStyle;rounded=0;orthogonalLoop=1;jettySize=auto;html=1;exitX=0.25;exitY=0;exitDx=0;exitDy=0;entryX=0.5;entryY=1;entryDx=0;entryDy=0;startArrow=classic;startFill=1;" edge="1" parent="1" source="SiSDeAiF9ZgPKwELXqy6-46" target="SiSDeAiF9ZgPKwELXqy6-26">
          <mxGeometry relative="1" as="geometry" />
        </mxCell>
        <mxCell id="SiSDeAiF9ZgPKwELXqy6-45" style="edgeStyle=orthogonalEdgeStyle;rounded=0;orthogonalLoop=1;jettySize=auto;html=1;exitX=1;exitY=0.5;exitDx=0;exitDy=0;entryX=0;entryY=0.5;entryDx=0;entryDy=0;startArrow=classic;startFill=1;" edge="1" parent="1" source="SiSDeAiF9ZgPKwELXqy6-24" target="SiSDeAiF9ZgPKwELXqy6-48">
          <mxGeometry relative="1" as="geometry" />
        </mxCell>
        <mxCell id="SiSDeAiF9ZgPKwELXqy6-46" value="darkValley.html" style="rounded=0;whiteSpace=wrap;html=1;" vertex="1" parent="1">
          <mxGeometry x="442.6499938964844" y="533.8500061035156" width="120" height="60" as="geometry" />
        </mxCell>
        <mxCell id="SiSDeAiF9ZgPKwELXqy6-47" value="" style="endArrow=classic;startArrow=classic;html=1;rounded=0;entryX=0.5;entryY=1;entryDx=0;entryDy=0;exitX=0.5;exitY=0;exitDx=0;exitDy=0;strokeColor=#9D00FF;" edge="1" parent="1" source="SiSDeAiF9ZgPKwELXqy6-24" target="SiSDeAiF9ZgPKwELXqy6-46">
          <mxGeometry width="50" height="50" relative="1" as="geometry">
            <mxPoint x="517.6499938964844" y="593.8500061035156" as="sourcePoint" />
            <mxPoint x="567.6499938964844" y="543.8500061035156" as="targetPoint" />
          </mxGeometry>
        </mxCell>
        <mxCell id="SiSDeAiF9ZgPKwELXqy6-48" value="rest.html" style="rounded=0;whiteSpace=wrap;html=1;" vertex="1" parent="1">
          <mxGeometry x="642.6499938964844" y="643.8500061035156" width="120" height="60" as="geometry" />
        </mxCell>
        <mxCell id="SiSDeAiF9ZgPKwELXqy6-49" value="entrance.html" style="rounded=0;whiteSpace=wrap;html=1;" vertex="1" parent="1">
          <mxGeometry x="1020.1499938964844" y="833.8500061035156" width="120" height="60" as="geometry" />
        </mxCell>
        <mxCell id="SiSDeAiF9ZgPKwELXqy6-50" value="" style="endArrow=classic;startArrow=classic;html=1;rounded=0;entryX=0.5;entryY=1;entryDx=0;entryDy=0;edgeStyle=orthogonalEdgeStyle;" edge="1" parent="1">
          <mxGeometry width="50" height="50" relative="1" as="geometry">
            <mxPoint x="1082.6499938964844" y="953.8500061035156" as="sourcePoint" />
            <mxPoint x="1082.6499938964844" y="893.8500061035156" as="targetPoint" />
            <Array as="points">
              <mxPoint x="1082.6499938964844" y="923.8500061035156" />
              <mxPoint x="1082.6499938964844" y="923.8500061035156" />
            </Array>
          </mxGeometry>
        </mxCell>
        <mxCell id="SiSDeAiF9ZgPKwELXqy6-51" value="pass&lt;span style=&quot;background-color: transparent; color: light-dark(rgb(0, 0, 0), rgb(255, 255, 255));&quot;&gt;.html&lt;/span&gt;" style="rounded=0;whiteSpace=wrap;html=1;strokeColor=#FF0000;" vertex="1" parent="1">
          <mxGeometry x="817.6499938964844" y="923.8500061035156" width="120" height="60" as="geometry" />
        </mxCell>
        <mxCell id="SiSDeAiF9ZgPKwELXqy6-52" value="" style="endArrow=classic;startArrow=classic;html=1;rounded=0;edgeStyle=orthogonalEdgeStyle;" edge="1" parent="1">
          <mxGeometry width="50" height="50" relative="1" as="geometry">
            <mxPoint x="877.1499938964844" y="923.8500061035156" as="sourcePoint" />
            <mxPoint x="1017.6499938964844" y="863.8500061035156" as="targetPoint" />
            <Array as="points">
              <mxPoint x="877.1499938964844" y="893.8500061035156" />
              <mxPoint x="877.1499938964844" y="893.8500061035156" />
            </Array>
          </mxGeometry>
        </mxCell>
        <mxCell id="SiSDeAiF9ZgPKwELXqy6-53" value="enter.html" style="rounded=0;whiteSpace=wrap;html=1;" vertex="1" parent="1">
          <mxGeometry x="1020.1499938964844" y="723.8500061035156" width="120" height="60" as="geometry" />
        </mxCell>
        <mxCell id="SiSDeAiF9ZgPKwELXqy6-54" value="" style="endArrow=classic;startArrow=classic;html=1;rounded=0;edgeStyle=orthogonalEdgeStyle;entryX=0.5;entryY=1;entryDx=0;entryDy=0;" edge="1" parent="1" target="SiSDeAiF9ZgPKwELXqy6-53">
          <mxGeometry width="50" height="50" relative="1" as="geometry">
            <mxPoint x="1079.6499938964844" y="833.8500061035156" as="sourcePoint" />
            <mxPoint x="1079.6499938964844" y="793.8500061035156" as="targetPoint" />
            <Array as="points" />
          </mxGeometry>
        </mxCell>
        <mxCell id="SiSDeAiF9ZgPKwELXqy6-55" value="archercamp.html" style="rounded=0;whiteSpace=wrap;html=1;" vertex="1" parent="1">
          <mxGeometry x="847.6499938964844" y="653.8500061035156" width="120" height="60" as="geometry" />
        </mxCell>
        <mxCell id="SiSDeAiF9ZgPKwELXqy6-56" value="training.html" style="rounded=0;whiteSpace=wrap;html=1;" vertex="1" parent="1">
          <mxGeometry x="727.6499938964844" y="533.8500061035156" width="120" height="60" as="geometry" />
        </mxCell>
        <mxCell id="SiSDeAiF9ZgPKwELXqy6-57" value="" style="endArrow=classic;startArrow=classic;html=1;rounded=0;entryX=0.5;entryY=1;entryDx=0;entryDy=0;edgeStyle=orthogonalEdgeStyle;" edge="1" parent="1">
          <mxGeometry width="50" height="50" relative="1" as="geometry">
            <mxPoint x="1017.6499938964844" y="753.8500061035156" as="sourcePoint" />
            <mxPoint x="907.1499938964844" y="713.8500061035156" as="targetPoint" />
            <Array as="points">
              <mxPoint x="907.1499938964844" y="743.8500061035156" />
              <mxPoint x="907.1499938964844" y="743.8500061035156" />
            </Array>
          </mxGeometry>
        </mxCell>
        <mxCell id="SiSDeAiF9ZgPKwELXqy6-58" style="edgeStyle=orthogonalEdgeStyle;rounded=0;orthogonalLoop=1;jettySize=auto;html=1;entryX=0.5;entryY=1;entryDx=0;entryDy=0;startArrow=classic;startFill=1;exitX=0.5;exitY=0;exitDx=0;exitDy=0;" edge="1" parent="1" source="SiSDeAiF9ZgPKwELXqy6-55" target="SiSDeAiF9ZgPKwELXqy6-56">
          <mxGeometry relative="1" as="geometry">
            <mxPoint x="957.6499938964844" y="743.8500061035156" as="sourcePoint" />
            <mxPoint x="777.6499938964844" y="593.3500061035156" as="targetPoint" />
            <Array as="points">
              <mxPoint x="907.6499938964844" y="623.8500061035156" />
              <mxPoint x="787.6499938964844" y="623.8500061035156" />
            </Array>
          </mxGeometry>
        </mxCell>
        <mxCell id="SiSDeAiF9ZgPKwELXqy6-59" value="jungle.html" style="rounded=0;whiteSpace=wrap;html=1;" vertex="1" parent="1">
          <mxGeometry x="1020.1499938964844" y="583.8500061035156" width="120" height="60" as="geometry" />
        </mxCell>
        <mxCell id="SiSDeAiF9ZgPKwELXqy6-60" value="rest.html" style="rounded=0;whiteSpace=wrap;html=1;" vertex="1" parent="1">
          <mxGeometry x="1207.6499938964844" y="583.8500061035156" width="120" height="60" as="geometry" />
        </mxCell>
        <mxCell id="SiSDeAiF9ZgPKwELXqy6-61" value="" style="endArrow=classic;startArrow=classic;html=1;rounded=0;entryX=0;entryY=0.5;entryDx=0;entryDy=0;exitX=1;exitY=0.5;exitDx=0;exitDy=0;" edge="1" parent="1" source="SiSDeAiF9ZgPKwELXqy6-59" target="SiSDeAiF9ZgPKwELXqy6-60">
          <mxGeometry width="50" height="50" relative="1" as="geometry">
            <mxPoint x="977.6499938964844" y="643.8500061035156" as="sourcePoint" />
            <mxPoint x="1027.6499938964844" y="593.8500061035156" as="targetPoint" />
          </mxGeometry>
        </mxCell>
        <mxCell id="SiSDeAiF9ZgPKwELXqy6-62" value="" style="endArrow=classic;startArrow=classic;html=1;rounded=0;entryX=0.5;entryY=1;entryDx=0;entryDy=0;edgeStyle=orthogonalEdgeStyle;exitX=0.5;exitY=0;exitDx=0;exitDy=0;" edge="1" parent="1" source="SiSDeAiF9ZgPKwELXqy6-53">
          <mxGeometry width="50" height="50" relative="1" as="geometry">
            <mxPoint x="1079.6499938964844" y="703.8500061035156" as="sourcePoint" />
            <mxPoint x="1079.6499938964844" y="643.8500061035156" as="targetPoint" />
            <Array as="points">
              <mxPoint x="1080.6499938964844" y="673.8500061035156" />
            </Array>
          </mxGeometry>
        </mxCell>
        <mxCell id="SiSDeAiF9ZgPKwELXqy6-63" value="junglecamp.html" style="rounded=0;whiteSpace=wrap;html=1;" vertex="1" parent="1">
          <mxGeometry x="927.6499938964844" y="463.8500061035156" width="120" height="60" as="geometry" />
        </mxCell>
        <mxCell id="SiSDeAiF9ZgPKwELXqy6-64" style="edgeStyle=orthogonalEdgeStyle;rounded=0;orthogonalLoop=1;jettySize=auto;html=1;entryX=0.5;entryY=1;entryDx=0;entryDy=0;startArrow=classic;startFill=1;exitX=0.5;exitY=0;exitDx=0;exitDy=0;fillColor=#6a00ff;strokeColor=#3700CC;" edge="1" parent="1" source="SiSDeAiF9ZgPKwELXqy6-59">
          <mxGeometry relative="1" as="geometry">
            <mxPoint x="1127.6499938964844" y="583.8500061035156" as="sourcePoint" />
            <mxPoint x="1007.6499938964844" y="523.8500061035156" as="targetPoint" />
            <Array as="points">
              <mxPoint x="1080.6499938964844" y="553.8500061035156" />
              <mxPoint x="1007.6499938964844" y="553.8500061035156" />
            </Array>
          </mxGeometry>
        </mxCell>
        <mxCell id="SiSDeAiF9ZgPKwELXqy6-65" value="main.html" style="rounded=0;whiteSpace=wrap;html=1;strokeColor=#FF0000;" vertex="1" parent="1">
          <mxGeometry x="787.6499938964844" y="353.8500061035156" width="120" height="60" as="geometry" />
        </mxCell>
        <mxCell id="SiSDeAiF9ZgPKwELXqy6-66" value="sneak.html" style="rounded=0;whiteSpace=wrap;html=1;strokeColor=#FF0000;" vertex="1" parent="1">
          <mxGeometry x="1077.6499938964844" y="353.8500061035156" width="120" height="60" as="geometry" />
        </mxCell>
        <mxCell id="SiSDeAiF9ZgPKwELXqy6-67" value="" style="endArrow=classic;html=1;rounded=0;entryX=0.5;entryY=1;entryDx=0;entryDy=0;" edge="1" parent="1" target="SiSDeAiF9ZgPKwELXqy6-66">
          <mxGeometry width="50" height="50" relative="1" as="geometry">
            <mxPoint x="997.6499938964844" y="463.8500061035156" as="sourcePoint" />
            <mxPoint x="1047.6499938964844" y="413.8500061035156" as="targetPoint" />
            <Array as="points">
              <mxPoint x="997.6499938964844" y="443.8500061035156" />
              <mxPoint x="1137.6499938964844" y="443.8500061035156" />
            </Array>
          </mxGeometry>
        </mxCell>
        <mxCell id="SiSDeAiF9ZgPKwELXqy6-68" value="" style="endArrow=classic;startArrow=classic;html=1;rounded=0;exitX=0.25;exitY=0;exitDx=0;exitDy=0;" edge="1" parent="1">
          <mxGeometry width="50" height="50" relative="1" as="geometry">
            <mxPoint x="957.6499938964844" y="463.8500061035156" as="sourcePoint" />
            <mxPoint x="847.6499938964844" y="413.8500061035156" as="targetPoint" />
            <Array as="points">
              <mxPoint x="957.6499938964844" y="438.8500061035156" />
              <mxPoint x="847.6499938964844" y="438.8500061035156" />
            </Array>
          </mxGeometry>
        </mxCell>
        <mxCell id="SiSDeAiF9ZgPKwELXqy6-69" value="" style="endArrow=classic;startArrow=classic;html=1;rounded=0;entryX=0.5;entryY=1;entryDx=0;entryDy=0;edgeStyle=orthogonalEdgeStyle;" edge="1" parent="1">
          <mxGeometry width="50" height="50" relative="1" as="geometry">
            <mxPoint x="867.6499938964844" y="353.8500061035156" as="sourcePoint" />
            <mxPoint x="987.6499938964844" y="313.8500061035156" as="targetPoint" />
            <Array as="points">
              <mxPoint x="867.6499938964844" y="333.8500061035156" />
              <mxPoint x="988.6499938964844" y="333.8500061035156" />
            </Array>
          </mxGeometry>
        </mxCell>
        <mxCell id="SiSDeAiF9ZgPKwELXqy6-70" value="" style="endArrow=classic;startArrow=classic;html=1;rounded=0;entryX=0.5;entryY=1;entryDx=0;entryDy=0;exitX=0.5;exitY=0;exitDx=0;exitDy=0;edgeStyle=orthogonalEdgeStyle;" edge="1" parent="1" source="SiSDeAiF9ZgPKwELXqy6-66">
          <mxGeometry width="50" height="50" relative="1" as="geometry">
            <mxPoint x="1107.6499938964844" y="403.8500061035156" as="sourcePoint" />
            <mxPoint x="987.6499938964844" y="313.8500061035156" as="targetPoint" />
            <Array as="points">
              <mxPoint x="1137.6499938964844" y="333.8500061035156" />
              <mxPoint x="987.6499938964844" y="333.8500061035156" />
            </Array>
          </mxGeometry>
        </mxCell>
        <mxCell id="SiSDeAiF9ZgPKwELXqy6-85" value="" style="edgeStyle=none;curved=1;rounded=0;orthogonalLoop=1;jettySize=auto;html=1;fontSize=12;startSize=8;endSize=8;" edge="1" parent="1" source="SiSDeAiF9ZgPKwELXqy6-81" target="SiSDeAiF9ZgPKwELXqy6-11">
          <mxGeometry relative="1" as="geometry" />
        </mxCell>
        <mxCell id="SiSDeAiF9ZgPKwELXqy6-86" value="" style="edgeStyle=none;curved=1;rounded=0;orthogonalLoop=1;jettySize=auto;html=1;fontSize=12;startSize=8;endSize=8;" edge="1" parent="1" source="SiSDeAiF9ZgPKwELXqy6-81" target="SiSDeAiF9ZgPKwELXqy6-11">
          <mxGeometry relative="1" as="geometry" />
        </mxCell>
        <mxCell id="SiSDeAiF9ZgPKwELXqy6-88" value="" style="edgeStyle=none;curved=1;rounded=0;orthogonalLoop=1;jettySize=auto;html=1;fontSize=12;startSize=8;endSize=8;" edge="1" parent="1" source="SiSDeAiF9ZgPKwELXqy6-81" target="SiSDeAiF9ZgPKwELXqy6-87">
          <mxGeometry relative="1" as="geometry" />
        </mxCell>
        <mxCell id="SiSDeAiF9ZgPKwELXqy6-91" value="" style="edgeStyle=none;curved=1;rounded=0;orthogonalLoop=1;jettySize=auto;html=1;fontSize=12;startSize=8;endSize=8;" edge="1" parent="1" source="SiSDeAiF9ZgPKwELXqy6-81" target="SiSDeAiF9ZgPKwELXqy6-90">
          <mxGeometry relative="1" as="geometry" />
        </mxCell>
        <mxCell id="SiSDeAiF9ZgPKwELXqy6-98" value="" style="edgeStyle=none;curved=1;rounded=0;orthogonalLoop=1;jettySize=auto;html=1;fontSize=12;startSize=8;endSize=8;" edge="1" parent="1" source="SiSDeAiF9ZgPKwELXqy6-81" target="SiSDeAiF9ZgPKwELXqy6-97">
          <mxGeometry relative="1" as="geometry" />
        </mxCell>
        <mxCell id="SiSDeAiF9ZgPKwELXqy6-81" value="courtyard.html" style="rounded=0;whiteSpace=wrap;html=1;" vertex="1" parent="1">
          <mxGeometry x="1597.6499938964844" y="793.0000061035156" width="120" height="60" as="geometry" />
        </mxCell>
        <mxCell id="SiSDeAiF9ZgPKwELXqy6-89" value="" style="edgeStyle=none;curved=1;rounded=0;orthogonalLoop=1;jettySize=auto;html=1;fontSize=12;startSize=8;endSize=8;" edge="1" parent="1" source="SiSDeAiF9ZgPKwELXqy6-87" target="SiSDeAiF9ZgPKwELXqy6-81">
          <mxGeometry relative="1" as="geometry" />
        </mxCell>
        <mxCell id="SiSDeAiF9ZgPKwELXqy6-87" value="library.html" style="rounded=0;whiteSpace=wrap;html=1;" vertex="1" parent="1">
          <mxGeometry x="1387.6499938964844" y="793.0000061035156" width="120" height="60" as="geometry" />
        </mxCell>
        <mxCell id="SiSDeAiF9ZgPKwELXqy6-96" value="" style="edgeStyle=none;curved=1;rounded=0;orthogonalLoop=1;jettySize=auto;html=1;fontSize=12;startSize=8;endSize=8;" edge="1" parent="1" source="SiSDeAiF9ZgPKwELXqy6-90" target="SiSDeAiF9ZgPKwELXqy6-95">
          <mxGeometry relative="1" as="geometry" />
        </mxCell>
        <mxCell id="SiSDeAiF9ZgPKwELXqy6-90" value="Alchemylab.html" style="rounded=0;whiteSpace=wrap;html=1;" vertex="1" parent="1">
          <mxGeometry x="1837.6499938964844" y="793.0000061035156" width="120" height="60" as="geometry" />
        </mxCell>
        <mxCell id="SiSDeAiF9ZgPKwELXqy6-95" value="InsideAlchemy.html" style="rounded=0;whiteSpace=wrap;html=1;" vertex="1" parent="1">
          <mxGeometry x="1837.6499938964844" y="687.0000061035156" width="120" height="60" as="geometry" />
        </mxCell>
        <mxCell id="SiSDeAiF9ZgPKwELXqy6-97" value="boss.html" style="rounded=0;whiteSpace=wrap;html=1;" vertex="1" parent="1">
          <mxGeometry x="1588.9999938964843" y="477.0000061035156" width="120" height="60" as="geometry" />
        </mxCell>
        <mxCell id="SiSDeAiF9ZgPKwELXqy6-100" value="puzzle-door.html" style="rounded=0;whiteSpace=wrap;html=1;" vertex="1" parent="1">
          <mxGeometry x="1790.9999938964843" y="560.0000061035156" width="120" height="60" as="geometry" />
        </mxCell>
        <mxCell id="SiSDeAiF9ZgPKwELXqy6-102" value="cursedDoor.html" style="rounded=0;whiteSpace=wrap;html=1;" vertex="1" parent="1">
          <mxGeometry x="1412.9999938964843" y="566.0000061035156" width="120" height="60" as="geometry" />
        </mxCell>
        <mxCell id="SiSDeAiF9ZgPKwELXqy6-104" value="" style="endArrow=classic;startArrow=classic;html=1;rounded=0;fontSize=12;startSize=8;endSize=8;curved=1;exitX=1;exitY=1;exitDx=0;exitDy=0;" edge="1" parent="1" source="SiSDeAiF9ZgPKwELXqy6-102">
          <mxGeometry width="50" height="50" relative="1" as="geometry">
            <mxPoint x="1562" y="764" as="sourcePoint" />
            <mxPoint x="1600" y="792" as="targetPoint" />
          </mxGeometry>
        </mxCell>
        <mxCell id="SiSDeAiF9ZgPKwELXqy6-106" value="" style="endArrow=classic;startArrow=classic;html=1;rounded=0;fontSize=12;startSize=8;endSize=8;curved=1;entryX=0;entryY=1;entryDx=0;entryDy=0;" edge="1" parent="1" target="SiSDeAiF9ZgPKwELXqy6-100">
          <mxGeometry width="50" height="50" relative="1" as="geometry">
            <mxPoint x="1712" y="793" as="sourcePoint" />
            <mxPoint x="1762" y="743" as="targetPoint" />
          </mxGeometry>
        </mxCell>
        <mxCell id="SiSDeAiF9ZgPKwELXqy6-107" value="" style="endArrow=classic;html=1;rounded=0;fontSize=12;startSize=8;endSize=8;edgeStyle=orthogonalEdgeStyle;entryX=1;entryY=0.5;entryDx=0;entryDy=0;" edge="1" parent="1" target="SiSDeAiF9ZgPKwELXqy6-2">
          <mxGeometry width="50" height="50" relative="1" as="geometry">
            <mxPoint x="1709" y="512" as="sourcePoint" />
            <mxPoint x="1278" y="1237" as="targetPoint" />
            <Array as="points">
              <mxPoint x="1709" y="507" />
              <mxPoint x="2058" y="507" />
              <mxPoint x="2058" y="1234" />
            </Array>
          </mxGeometry>
        </mxCell>
        <mxCell id="SiSDeAiF9ZgPKwELXqy6-108" value="" style="endArrow=classic;html=1;rounded=0;fontSize=12;startSize=8;endSize=8;curved=1;exitX=1;exitY=1;exitDx=0;exitDy=0;" edge="1" parent="1" source="SiSDeAiF9ZgPKwELXqy6-81">
          <mxGeometry width="50" height="50" relative="1" as="geometry">
            <mxPoint x="1933" y="1005" as="sourcePoint" />
            <mxPoint x="2059" y="1238" as="targetPoint" />
          </mxGeometry>
        </mxCell>
      </root>
    </mxGraphModel>
  </diagram>
</mxfile>
